<?xml version="1.0" encoding="UTF-8" standalone="no"?>
<!DOCTYPE svg PUBLIC "-//W3C//DTD SVG 1.1//EN" "http://www.w3.org/Graphics/SVG/1.1/DTD/svg11.dtd">
<svg width="100%" height="100%" viewBox="0 0 591 591" version="1.1" xmlns="http://www.w3.org/2000/svg" style="fill-rule:evenodd;clip-rule:evenodd;stroke-linejoin:round;stroke-miterlimit:2;">
    <g transform="matrix(1,0,0,1,-531.496,-1871.56)">
        <g transform="matrix(1,0,0,1,-8064.65,0)">
            <g transform="matrix(0.897598,0,0,0.897598,3411.58,-466.441)">
                <circle cx="6105" cy="2933.69" r="328.962" style="fill:rgb(183,146,51);"/>
            </g>
        </g>
        <g transform="matrix(1,0,0,1,-8064.65,0)">
            <g transform="matrix(0.834766,0,0,0.834766,3795.17,-282.112)">
                <circle cx="6105" cy="2933.69" r="328.962"/>
            </g>
        </g>
        <g transform="matrix(1,0,0,1,-8064.65,0)">
            <g transform="matrix(0.562437,0,0,0.562437,945.551,1180.35)">
                <g transform="matrix(1,0,0,1,10711.2,1088.85)">
                    <path d="M3556.36,967.748L3276.29,967.748L3264.59,974.386C3264.59,974.386 3187.45,973.778 3169.73,971.885C3164.92,971.372 3161.43,969.256 3158.24,963.03C3155.06,956.803 3153.11,940.913 3153.11,940.913C3151.4,940.913 3149.44,812.633 3153.11,797.117C3156.59,782.388 3164.3,779.53 3164.3,779.53L3209.73,779.876C3209.73,779.876 3229.06,804.845 3236.09,811.458C3243.57,818.5 3250.4,821.1 3250.4,821.1C3250.4,821.1 3290.63,921.575 3292.4,927.947C3294.35,934.939 3302.06,939.79 3307.43,939.79L3525.22,939.79C3530.58,939.79 3538.3,934.939 3540.24,927.947C3542.02,921.575 3582.25,821.1 3582.25,821.1C3582.25,821.1 3589.07,818.5 3596.56,811.458C3603.59,804.845 3622.92,779.876 3622.92,779.876L3668.35,779.53C3668.35,779.53 3676.06,782.388 3679.54,797.117C3683.21,812.633 3681.25,940.913 3679.54,940.913C3679.54,940.913 3677.59,956.803 3674.4,963.03C3671.22,969.256 3667.72,971.372 3662.92,971.885C3645.19,973.778 3568.06,974.386 3568.06,974.386L3556.36,967.748ZM3665.53,891.688C3649.8,891.842 3590.81,894.844 3574.9,896.028C3573.05,896.165 3571,897.189 3570.06,898.788C3567.32,903.435 3560.38,918.749 3558.44,923.915C3557.75,925.746 3557.44,928.579 3558.44,929.781C3559.43,930.983 3562.38,930.958 3564.41,931.127C3566.83,931.327 3570.11,931.289 3572.94,930.983C3587.32,929.426 3635.7,924.607 3650.69,921.783C3655.42,920.892 3659.93,917.133 3662.87,914.034C3665.66,911.096 3667.29,906.341 3668.35,903.186C3669.22,900.618 3669.72,897.022 3669.25,895.106C3668.85,893.471 3667.21,891.672 3665.53,891.688ZM3665.53,819.362L3605.64,820.659C3603.02,820.716 3600.64,823.116 3599.37,825.415C3595.59,832.297 3585.68,854.529 3582.94,861.952C3582.02,864.454 3581.36,869.772 3584.02,869.895C3597.46,870.512 3649.34,867.206 3663.58,865.658C3665.87,865.409 3668.01,862.941 3668.35,860.663C3669.32,854.133 3669.84,833.362 3669.37,826.478C3669.19,823.788 3668.22,819.303 3665.53,819.362ZM3167.12,891.688C3165.43,891.672 3163.8,893.471 3163.4,895.106C3162.93,897.022 3163.43,900.618 3164.3,903.186C3165.36,906.341 3166.99,911.096 3169.78,914.034C3172.72,917.133 3177.23,920.892 3181.95,921.783C3196.94,924.607 3245.33,929.426 3259.71,930.983C3262.53,931.289 3265.82,931.327 3268.23,931.127C3270.27,930.958 3273.21,930.983 3274.21,929.781C3275.21,928.579 3274.9,925.746 3274.21,923.915C3272.27,918.749 3265.33,903.435 3262.59,898.788C3261.64,897.189 3259.6,896.165 3257.75,896.028C3241.84,894.844 3182.84,891.842 3167.12,891.688ZM3167.12,819.362C3164.42,819.303 3163.46,823.788 3163.27,826.478C3162.8,833.362 3163.33,854.133 3164.3,860.663C3164.63,862.941 3166.78,865.409 3169.07,865.658C3183.31,867.206 3235.19,870.512 3248.63,869.895C3251.29,869.772 3250.63,864.454 3249.7,861.952C3246.97,854.529 3237.06,832.297 3233.27,825.415C3232.01,823.116 3229.63,820.716 3227,820.659L3167.12,819.362ZM3416.32,804.248C3416.32,804.248 3282.31,804.247 3265.02,803.971C3247.72,803.694 3241.63,793.852 3241.63,793.852L3220.06,765.919C3220.06,765.919 3192.5,661.009 3192.5,655.605C3192.5,650.2 3187.33,642.417 3183.85,637.876C3180.38,633.336 3164.3,632.175 3164.3,632.175C3164.3,632.175 3166.5,580.411 3166.5,571.263C3166.5,558.929 3171.81,516.913 3173.54,491.402C3175.27,465.891 3183.69,410.645 3187.33,396.685C3194.32,369.84 3203.1,352.551 3226.74,350.743C3282.83,346.453 3416.32,345.783 3416.32,345.783C3416.32,345.783 3549.81,346.453 3605.91,350.743C3629.55,352.551 3638.33,369.84 3645.32,396.685C3648.95,410.645 3657.38,465.891 3659.1,491.402C3660.83,516.913 3666.15,558.929 3666.15,571.263C3666.15,580.411 3668.35,632.175 3668.35,632.175C3668.35,632.175 3652.27,633.336 3648.79,637.876C3645.32,642.417 3640.14,650.2 3640.14,655.605C3640.14,661.009 3612.59,765.919 3612.59,765.919L3591.02,793.852C3591.02,793.852 3584.93,803.694 3567.63,803.971C3550.34,804.247 3416.32,804.248 3416.32,804.248ZM3416.32,416.016C3416.32,416.016 3244.67,417.313 3210.72,417.313C3195.16,417.313 3194.32,436.324 3194.32,436.324C3194.32,436.324 3179.17,553.827 3181.81,571.773C3184.44,589.719 3198.17,588.663 3198.17,588.663L3634.48,588.663C3634.48,588.663 3648.2,589.719 3650.84,571.773C3653.48,553.827 3638.33,436.324 3638.33,436.324C3638.33,436.324 3637.49,417.313 3621.92,417.313C3587.98,417.313 3416.32,416.016 3416.32,416.016ZM3416.32,625.595C3416.32,625.595 3218.12,625.595 3216.37,625.769C3214.61,625.942 3214.41,625.769 3213.96,632.175C3213.52,638.582 3215.26,651.927 3215.26,651.927L3239.2,761.821C3243.88,783.286 3259.75,781.884 3259.75,781.884L3416.32,783.488L3572.9,781.884C3572.9,781.884 3588.77,783.286 3593.45,761.821L3617.39,651.927C3617.39,651.927 3619.13,638.582 3618.68,632.175C3618.24,625.769 3618.04,625.942 3616.28,625.769C3614.52,625.595 3416.32,625.595 3416.32,625.595ZM3416.32,884.767C3416.32,884.767 3327.21,883.418 3307.29,882.458C3303.62,882.281 3299.84,881.028 3296.88,878.861C3293.87,876.664 3291.05,872.939 3289.25,869.274C3285.58,861.8 3274.85,834.019 3274.85,834.019L3289.25,835.111C3289.25,835.111 3295.85,854.525 3298.86,859.757C3300.65,862.879 3304.37,865.183 3307.29,866.507C3310.07,867.769 3313.32,867.669 3316.37,867.702C3334.54,867.897 3416.32,867.68 3416.32,867.68C3416.32,867.68 3498.1,867.897 3516.28,867.702C3519.33,867.669 3522.58,867.769 3525.36,866.507C3528.28,865.183 3531.99,862.879 3533.79,859.757C3536.8,854.525 3543.4,835.111 3543.4,835.111L3557.8,834.019C3557.8,834.019 3547.07,861.8 3543.4,869.274C3541.6,872.939 3538.78,876.664 3535.77,878.861C3532.81,881.028 3529.03,882.281 3525.36,882.458C3505.44,883.418 3416.32,884.767 3416.32,884.767ZM3154.12,650.067L3169.51,650.067C3176.15,650.067 3179.36,660.046 3179.36,660.046L3203.34,760.717C3203.34,760.717 3167.14,759.278 3159.95,759.278C3152.75,759.278 3153.11,750.395 3153.11,750.395L3154.12,650.067ZM3150.77,621.118L3150.77,632.187L3123.49,632.187C3123.49,632.187 3118,632.187 3113.66,627.671C3108.81,622.625 3109.41,619.423 3109.41,616.159L3118,616.159C3118,616.159 3119.43,619.723 3121.04,620.302C3123.34,621.128 3124.63,621.118 3131.82,621.118L3150.77,621.118ZM3130.27,578.642L3130.27,601.784C3130.27,604.537 3128.03,606.772 3125.28,606.772L3092.35,606.772C3089.6,606.772 3087.36,604.537 3087.36,601.784L3087.36,578.642C3087.36,575.889 3089.6,573.653 3092.35,573.653L3125.28,573.653C3128.03,573.653 3130.27,575.889 3130.27,578.642ZM3130.27,488.37L3130.27,555.895C3130.27,559.462 3127.37,562.357 3123.8,562.357L3093.82,562.357C3090.26,562.357 3087.36,559.462 3087.36,555.895L3087.36,488.37C3087.36,484.803 3090.26,481.907 3093.82,481.907L3123.8,481.907C3127.37,481.907 3130.27,484.803 3130.27,488.37ZM3109.39,472.032C3109.39,472.032 3109.72,465.907 3111.6,463.885C3115.29,459.901 3120.63,459.901 3120.63,459.901L3162.25,459.901L3161.28,472.032L3109.39,472.032ZM3678.53,650.067L3679.54,750.395C3679.54,750.395 3679.89,759.278 3672.7,759.278C3665.51,759.278 3629.31,760.717 3629.31,760.717L3653.29,660.046C3653.29,660.046 3656.5,650.067 3663.14,650.067L3678.53,650.067ZM3681.88,621.118L3700.83,621.118C3708.01,621.118 3709.31,621.128 3711.61,620.302C3713.22,619.723 3714.65,616.159 3714.65,616.159L3723.24,616.159C3723.24,619.423 3723.83,622.625 3718.99,627.671C3714.65,632.187 3709.16,632.187 3709.16,632.187L3681.88,632.187L3681.88,621.118ZM3702.38,578.642C3702.38,575.889 3704.62,573.653 3707.37,573.653L3740.3,573.653C3743.05,573.653 3745.28,575.889 3745.28,578.642L3745.28,601.784C3745.28,604.537 3743.05,606.772 3740.3,606.772L3707.37,606.772C3704.62,606.772 3702.38,604.537 3702.38,601.784L3702.38,578.642ZM3702.38,488.37C3702.38,484.803 3705.28,481.907 3708.84,481.907L3738.82,481.907C3742.39,481.907 3745.28,484.803 3745.28,488.37L3745.28,555.895C3745.28,559.462 3742.39,562.357 3738.82,562.357L3708.84,562.357C3705.28,562.357 3702.38,559.462 3702.38,555.895L3702.38,488.37ZM3723.26,472.032L3671.37,472.032L3670.4,459.901L3712.02,459.901C3712.02,459.901 3717.36,459.901 3721.05,463.885C3722.92,465.907 3723.26,472.032 3723.26,472.032Z" style="fill:rgb(183,146,51);"/>
                </g>
                <g transform="matrix(2.75413,0,0,2.75413,4252.58,-1026.24)">
                    <path d="M3544.61,1004.25L3544.61,1012.17L3538.51,1012.17L3538.51,1043.78L3528.23,1043.78L3528.23,1012.17L3522.15,1012.17L3522.15,1004.25L3544.61,1004.25Z" style="fill:white;fill-rule:nonzero;"/>
                    <path d="M3562.7,1004.25L3568.58,1043.78L3558.06,1043.78L3557.55,1036.68L3553.86,1036.68L3553.25,1043.78L3542.61,1043.78L3547.83,1004.25L3562.7,1004.25ZM3557.26,1029.67C3556.73,1025.19 3556.21,1019.66 3555.69,1013.07C3554.65,1020.64 3554,1026.17 3553.74,1029.67L3557.26,1029.67Z" style="fill:white;fill-rule:nonzero;"/>
                    <path d="M3593.97,1004.25L3593.97,1043.78L3583.7,1043.78L3583.7,1027.18L3580.62,1027.18L3580.62,1043.78L3570.34,1043.78L3570.34,1004.25L3580.62,1004.25L3580.62,1018.39L3583.7,1018.39L3583.7,1004.25L3593.97,1004.25Z" style="fill:white;fill-rule:nonzero;"/>
                    <path d="M3621.59,1027.4C3621.59,1031.37 3621.49,1034.18 3621.31,1035.84C3621.12,1037.49 3620.53,1039 3619.55,1040.36C3618.56,1041.73 3617.23,1042.78 3615.56,1043.51C3613.88,1044.25 3611.93,1044.61 3609.7,1044.61C3607.58,1044.61 3605.68,1044.27 3603.99,1043.57C3602.31,1042.88 3600.96,1041.84 3599.93,1040.46C3598.91,1039.08 3598.3,1037.57 3598.1,1035.94C3597.9,1034.32 3597.81,1031.47 3597.81,1027.4L3597.81,1020.64C3597.81,1016.67 3597.9,1013.85 3598.09,1012.2C3598.27,1010.55 3598.86,1009.04 3599.85,1007.67C3600.83,1006.31 3602.16,1005.26 3603.84,1004.52C3605.51,1003.79 3607.47,1003.43 3609.7,1003.43C3611.81,1003.43 3613.71,1003.77 3615.4,1004.46C3617.08,1005.15 3618.44,1006.19 3619.46,1007.58C3620.49,1008.96 3621.1,1010.46 3621.29,1012.09C3621.49,1013.72 3621.59,1016.57 3621.59,1020.64L3621.59,1027.4ZM3611.31,1014.41C3611.31,1012.57 3611.21,1011.4 3611,1010.88C3610.8,1010.37 3610.38,1010.11 3609.74,1010.11C3609.21,1010.11 3608.8,1010.32 3608.51,1010.74C3608.23,1011.15 3608.09,1012.38 3608.09,1014.41L3608.09,1032.87C3608.09,1035.16 3608.18,1036.58 3608.37,1037.12C3608.55,1037.65 3608.99,1037.92 3609.67,1037.92C3610.37,1037.92 3610.82,1037.61 3611.01,1036.99C3611.21,1036.38 3611.31,1034.9 3611.31,1032.58L3611.31,1014.41Z" style="fill:white;fill-rule:nonzero;"/>
                    <path d="M3647.2,1016.22L3637.65,1016.22L3637.65,1013.29C3637.65,1011.92 3637.53,1011.05 3637.28,1010.68C3637.04,1010.3 3636.63,1010.11 3636.06,1010.11C3635.45,1010.11 3634.98,1010.37 3634.66,1010.87C3634.34,1011.38 3634.18,1012.14 3634.18,1013.17C3634.18,1014.49 3634.36,1015.48 3634.72,1016.15C3635.06,1016.82 3636.03,1017.62 3637.63,1018.57C3642.2,1021.28 3645.08,1023.51 3646.27,1025.25C3647.46,1026.99 3648.05,1029.8 3648.05,1033.67C3648.05,1036.49 3647.72,1038.57 3647.06,1039.9C3646.4,1041.23 3645.13,1042.35 3643.24,1043.26C3641.35,1044.16 3639.16,1044.61 3636.65,1044.61C3633.9,1044.61 3631.55,1044.09 3629.61,1043.05C3627.66,1042.01 3626.39,1040.68 3625.78,1039.07C3625.18,1037.46 3624.88,1035.17 3624.88,1032.21L3624.88,1029.62L3634.43,1029.62L3634.43,1034.43C3634.43,1035.91 3634.56,1036.86 3634.83,1037.29C3635.1,1037.71 3635.58,1037.92 3636.26,1037.92C3636.94,1037.92 3637.45,1037.65 3637.78,1037.12C3638.12,1036.58 3638.28,1035.78 3638.28,1034.72C3638.28,1032.4 3637.97,1030.87 3637.33,1030.16C3636.68,1029.44 3635.08,1028.25 3632.52,1026.57C3629.97,1024.88 3628.28,1023.65 3627.45,1022.88C3626.62,1022.12 3625.93,1021.06 3625.38,1019.71C3624.84,1018.36 3624.56,1016.63 3624.56,1014.53C3624.56,1011.51 3624.95,1009.29 3625.72,1007.89C3626.5,1006.49 3627.75,1005.4 3629.47,1004.61C3631.2,1003.82 3633.28,1003.43 3635.72,1003.43C3638.39,1003.43 3640.66,1003.86 3642.55,1004.72C3644.43,1005.58 3645.67,1006.67 3646.28,1007.98C3646.89,1009.29 3647.2,1011.51 3647.2,1014.65L3647.2,1016.22Z" style="fill:white;fill-rule:nonzero;"/>
                </g>
            </g>
        </g>
    </g>
</svg>
