<svg width="602" height="444" viewBox="0 0 602 444" fill="none" xmlns="http://www.w3.org/2000/svg">
  <g clip-path="url(#clip0_1794_4028)">
    <path d="M133.548 122.267L21.3477 197.322L131.865 362.536L244.066 287.48L133.548 122.267Z"
      fill="#F5F5F5" />
    <path d="M186.089 279.661L184.809 287.541L129.029 279.501L130.309 271.621L186.089 279.661Z"
      fill="#E0E0E0" />
    <path d="M157.999 251.551L165.999 252.701L157.129 307.621L149.119 306.461L157.999 251.551Z"
      fill="#E0E0E0" />
    <path
      d="M106.62 181.751C106.7 181.871 95.4598 189.531 81.5098 198.861C67.5598 208.191 56.1898 215.661 56.1098 215.541C56.0298 215.421 67.2698 207.761 81.2198 198.431C95.1698 189.101 106.54 181.631 106.62 181.751Z"
      fill="#E0E0E0" />
    <path
      d="M147.879 171.392C147.959 171.512 129.259 184.162 106.119 199.632C82.9686 215.112 64.1486 227.562 64.0686 227.442C63.9886 227.322 82.6786 214.682 105.829 199.192C128.969 183.712 147.799 171.262 147.879 171.382V171.392Z"
      fill="#E0E0E0" />
    <path
      d="M156.15 183.751C156.23 183.871 137.53 196.521 114.39 211.991C91.2401 227.471 72.4201 239.921 72.3401 239.801C72.2601 239.681 90.9501 227.041 114.1 211.551C137.24 196.071 156.07 183.621 156.15 183.741V183.751Z"
      fill="#E0E0E0" />
    <path
      d="M164.42 196.12C164.5 196.24 145.8 208.89 122.66 224.36C99.5096 239.84 80.6896 252.29 80.6096 252.17C80.5296 252.05 99.2196 239.41 122.37 223.92C145.51 208.44 164.34 195.99 164.42 196.11V196.12Z"
      fill="#E0E0E0" />
    <path
      d="M172.699 208.491C172.779 208.611 154.079 221.261 130.939 236.731C107.789 252.211 88.9689 264.661 88.8889 264.541C88.8089 264.421 107.499 251.781 130.649 236.291C153.789 220.811 172.619 208.361 172.699 208.481V208.491Z"
      fill="#E0E0E0" />
    <path d="M508.735 232.971L414.504 296.006L507.318 434.754L601.549 371.72L508.735 232.971Z"
      fill="#F5F5F5" />
    <path d="M552.869 365.18L551.799 371.8L504.949 365.05L506.019 358.43L552.869 365.18Z"
      fill="#E0E0E0" />
    <path d="M529.268 341.57L535.998 342.54L528.538 388.66L521.818 387.69L529.268 341.57Z"
      fill="#E0E0E0" />
    <path
      d="M486.13 282.951C486.21 283.071 476.78 289.521 465.06 297.351C453.34 305.191 443.78 311.441 443.7 311.321C443.62 311.201 453.05 304.751 464.77 296.911C476.48 289.081 486.05 282.821 486.13 282.941V282.951Z"
      fill="#E0E0E0" />
    <path
      d="M520.779 274.251C520.859 274.371 505.169 285.011 485.729 298.011C466.289 311.011 450.469 321.451 450.389 321.331C450.309 321.211 465.999 310.581 485.439 297.571C504.869 284.571 520.699 274.131 520.779 274.251Z"
      fill="#E0E0E0" />
    <path
      d="M527.73 284.63C527.81 284.75 512.12 295.39 492.68 308.39C473.24 321.39 457.42 331.83 457.34 331.71C457.26 331.59 472.95 320.96 492.39 307.95C511.82 294.95 527.65 284.51 527.73 284.63Z"
      fill="#E0E0E0" />
    <path
      d="M534.67 295.021C534.75 295.141 519.06 305.781 499.62 318.771C480.18 331.771 464.36 342.211 464.28 342.091C464.2 341.971 479.89 331.341 499.33 318.331C518.76 305.331 534.59 294.891 534.67 295.011V295.021Z"
      fill="#E0E0E0" />
    <path
      d="M541.619 305.411C541.699 305.531 526.009 316.171 506.569 329.171C487.129 342.171 471.309 352.611 471.229 352.491C471.149 352.371 486.839 341.741 506.279 328.731C525.709 315.731 541.539 305.291 541.619 305.411Z"
      fill="#E0E0E0" />
    <path d="M359.656 128.334L256.838 73.3418L175.864 224.738L278.682 279.729L359.656 128.334Z"
      fill="#F5F5F5" />
    <path
      d="M303.388 131.99C303.308 132.14 292.878 126.72 280.098 119.88C267.308 113.04 257.018 107.38 257.098 107.23C257.178 107.08 267.608 112.5 280.388 119.34C293.168 126.18 303.468 131.84 303.388 131.99Z"
      fill="#E0E0E0" />
    <path
      d="M328.058 159.23C327.978 159.38 310.718 150.31 289.518 138.97C268.308 127.63 251.178 118.31 251.258 118.16C251.338 118.01 268.598 127.08 289.808 138.43C311.008 149.77 328.138 159.09 328.058 159.24V159.23Z"
      fill="#E0E0E0" />
    <path
      d="M322 170.56C321.92 170.71 304.659 161.64 283.459 150.3C262.249 138.96 245.119 129.64 245.199 129.49C245.279 129.34 262.54 138.41 283.75 149.76C304.95 161.1 322.08 170.42 322 170.57V170.56Z"
      fill="#E0E0E0" />
    <path
      d="M315.939 181.89C315.859 182.04 298.599 172.97 277.399 161.63C256.189 150.29 239.059 140.97 239.139 140.82C239.219 140.67 256.479 149.74 277.689 161.09C298.889 172.43 316.019 181.75 315.939 181.9V181.89Z"
      fill="#E0E0E0" />
    <path
      d="M309.878 193.22C309.798 193.37 292.538 184.3 271.338 172.96C250.128 161.62 232.998 152.3 233.078 152.15C233.158 152 250.418 161.07 271.628 172.42C292.828 183.76 309.958 193.08 309.878 193.23V193.22Z"
      fill="#E0E0E0" />
    <path opacity="0.2" d="M310.42 0H307.84V43.98H310.42V0Z" fill="black" />
    <path
      d="M248.9 97.1909H369.36C369.36 97.1909 358.24 43.9609 308.22 43.9609C263.73 43.9609 248.9 97.1909 248.9 97.1909Z"
      fill="#B79233" />
    <path d="M310.42 0H307.84V43.98H310.42V0Z" fill="#B79233" />
    <path
      d="M577.33 439.83C577.33 439.97 448.08 440.09 288.68 440.09C129.28 440.09 0 439.97 0 439.83C0 439.69 129.22 439.57 288.68 439.57C448.14 439.57 577.33 439.69 577.33 439.83Z"
      fill="#263238" />
    <path
      d="M31.9489 377.199C35.3289 377.319 38.4989 379.149 40.7289 381.699C42.9589 384.239 44.3289 387.439 45.1989 390.709C46.8889 397.029 45.8489 404.499 44.0489 410.789C37.1989 408.339 32.9789 401.039 31.0689 397.199C28.0489 391.129 26.2789 378.339 31.9389 377.199"
      fill="#B79233" />
    <path
      d="M53.9098 418.449C51.7498 415.349 51.6998 411.039 53.4098 407.659C55.1198 404.289 58.3998 401.859 62.0098 400.749C63.6798 400.239 65.6198 400.019 67.0698 400.989C68.4298 401.899 69.0198 403.679 68.8398 405.299C68.6598 406.919 67.8398 408.409 66.8698 409.719C63.5398 414.229 59.4898 417.979 53.9098 418.439"
      fill="#B79233" />
    <path
      d="M54.659 439.579C54.659 439.579 54.519 439.119 54.349 438.269C54.169 437.329 53.929 436.119 53.649 434.669C53.109 431.639 52.249 427.329 52.899 422.569C53.519 417.829 55.409 413.769 57.389 411.349C58.359 410.129 59.299 409.259 59.989 408.729C60.319 408.449 60.619 408.279 60.799 408.139C60.989 408.009 61.099 407.949 61.109 407.969C61.179 408.049 59.509 409.089 57.659 411.559C55.789 413.989 53.989 417.969 53.369 422.639C52.729 427.309 53.519 431.579 53.979 434.619C54.219 436.149 54.419 437.389 54.539 438.249C54.649 439.109 54.699 439.589 54.659 439.589V439.579Z"
      fill="#263238" />
    <path
      d="M34.1602 386.829C34.1602 386.829 34.2702 386.999 34.4402 387.349C34.6202 387.739 34.8602 388.249 35.1502 388.869C35.7502 390.199 36.6102 392.129 37.6402 394.519C39.7002 399.309 42.4602 405.969 45.3402 413.379C48.2202 420.799 50.6702 427.579 52.3702 432.499C53.2202 434.959 53.9002 436.959 54.3502 438.349C54.5602 439.009 54.7302 439.539 54.8602 439.949C54.9702 440.319 55.0202 440.509 55.0102 440.519C55.0002 440.529 54.9102 440.339 54.7702 439.979C54.6202 439.569 54.4202 439.049 54.1802 438.409C53.6602 436.989 52.9402 435.019 52.0602 432.609C50.2702 427.709 47.7702 420.959 44.9002 413.539C42.0202 406.129 39.3202 399.459 37.3402 394.639C36.3702 392.269 35.5702 390.329 34.9902 388.929C34.7302 388.289 34.5302 387.769 34.3702 387.369C34.2302 387.009 34.1702 386.819 34.1802 386.809L34.1602 386.829Z"
      fill="#263238" />
    <path
      d="M46.5393 425.599C42.4993 418.729 34.9693 414.049 27.0193 413.469C24.9993 413.319 22.5593 413.659 21.6593 415.479C20.7593 417.299 21.9593 419.449 23.3393 420.949C29.0793 427.159 38.7793 429.329 46.6093 426.149"
      fill="#B79233" />
    <path
      d="M30.0999 418.889C30.0999 418.889 30.5499 418.879 31.3699 418.939C31.7799 418.969 32.2799 418.999 32.8499 419.109C33.4199 419.219 34.0799 419.279 34.7899 419.469C35.4999 419.639 36.2899 419.819 37.0999 420.109C37.9299 420.349 38.7799 420.709 39.6699 421.089C41.4299 421.889 43.3099 422.939 45.0899 424.299C46.8599 425.679 48.3499 427.219 49.5699 428.729C50.1499 429.499 50.7099 430.239 51.1499 430.989C51.6299 431.709 51.9899 432.429 52.3199 433.079C52.6799 433.719 52.8899 434.349 53.1299 434.879C53.3699 435.409 53.5099 435.889 53.6299 436.279C53.8699 437.059 53.9899 437.489 53.9599 437.499C53.8599 437.539 53.3699 435.789 52.0199 433.229C51.6699 432.599 51.2999 431.899 50.8099 431.199C50.3699 430.469 49.8099 429.759 49.2199 429.009C48.0099 427.539 46.5299 426.039 44.7899 424.679C43.0399 423.339 41.2099 422.299 39.4799 421.489C38.6099 421.109 37.7699 420.739 36.9599 420.489C36.1699 420.189 35.3999 419.999 34.6999 419.799C31.8899 419.089 30.0799 418.989 30.0899 418.889H30.0999Z"
      fill="#263238" />
    <path
      d="M484.031 105.48C481.091 106.16 479.661 109.54 479.381 112.54C479.101 115.54 479.481 118.72 478.221 121.46C476.801 124.55 473.411 126.82 473.291 130.21C473.221 132.28 474.451 134.23 474.391 136.3C474.291 139.7 470.831 142.27 470.651 145.66C470.521 148.11 472.151 150.45 471.761 152.87C471.461 154.75 469.991 156.23 469.371 158.04C468.141 161.63 470.601 165.59 473.821 167.61C477.401 169.86 481.991 170.45 486.021 169.16C490.051 167.87 493.451 164.74 495.061 160.82C496.841 156.5 496.451 151.64 496.061 146.98C494.861 132.47 493.961 117.94 493.371 103.4"
      fill="#263238" />
    <path
      d="M475.491 156.66C475.431 156.6 476.291 156.35 476.831 155.06C477.091 154.43 477.231 153.59 477.171 152.62C477.141 151.64 476.801 150.58 476.441 149.38C476.111 148.19 475.671 146.81 475.921 145.28C476.171 143.72 477.291 142.44 478.301 141.19C478.811 140.55 479.331 139.89 479.651 139.14C479.991 138.4 480.061 137.54 479.811 136.74C479.291 135.11 477.691 133.9 476.961 132.02C476.601 131.07 476.591 130.04 476.801 129.1C477.001 128.16 477.381 127.3 477.771 126.48C478.551 124.85 479.421 123.36 479.761 121.77C480.461 118.6 480.131 115.57 480.611 113.08C481.041 110.59 482.101 108.71 483.141 107.75C483.651 107.25 484.141 106.99 484.461 106.81C484.801 106.66 484.981 106.6 484.991 106.61C485.021 106.67 484.251 106.9 483.281 107.89C482.321 108.86 481.351 110.7 480.971 113.14C480.771 114.35 480.741 115.72 480.691 117.18C480.641 118.64 480.591 120.23 480.221 121.87C479.871 123.53 478.991 125.09 478.231 126.68C477.481 128.25 476.791 130.09 477.451 131.81C478.091 133.51 479.701 134.72 480.301 136.56C480.601 137.48 480.501 138.49 480.111 139.31C479.741 140.14 479.201 140.83 478.681 141.47C477.631 142.73 476.591 143.94 476.351 145.34C476.101 146.73 476.491 148.08 476.801 149.26C477.131 150.45 477.461 151.57 477.471 152.59C477.501 153.6 477.331 154.48 477.021 155.12C476.721 155.77 476.301 156.18 476.001 156.38C475.691 156.59 475.501 156.64 475.501 156.64L475.491 156.66Z"
      fill="#455A64" />
    <path
      d="M467.622 180.369L458.592 206.389L420.952 208.409L414.672 222.379L453.972 226.359C461.812 229.599 470.762 225.629 473.622 217.649L484.112 188.369L467.622 180.379V180.369Z"
      fill="#B78876" />
    <path
      d="M545.481 425.701C545.481 425.701 517.891 338.081 517.311 335.241C516.781 332.671 527.321 269.621 528.651 253.301L491.381 254.691C491.381 254.691 491.381 254.791 491.381 254.961L475.541 255.841L489.731 435.031H506.881L505.181 375.581C515.761 403.981 530.911 432.911 530.911 432.911L545.491 425.701H545.481Z"
      fill="#B78876" />
    <path
      d="M505.871 396.881C505.891 396.341 505.661 376.961 505.661 376.961C505.451 378.121 499.081 360.141 499.241 359.041C499.321 358.471 505.871 396.881 505.871 396.881Z"
      fill="#A36957" />
    <path
      d="M498.51 350.531C498.51 350.531 498.43 350.921 498.4 351.621C498.36 352.321 498.35 353.341 498.42 354.591C498.44 355.221 498.51 355.901 498.59 356.641C498.68 357.371 498.78 358.161 498.95 358.971C499.26 360.611 499.74 362.381 500.35 364.191C501.6 367.811 502.97 370.981 503.95 373.291C504.41 374.341 504.81 375.241 505.14 376.001C505.43 376.641 505.61 376.981 505.65 376.961C505.69 376.951 505.58 376.571 505.35 375.911C505.12 375.251 504.77 374.301 504.32 373.131C503.44 370.791 502.13 367.601 500.89 364.001C500.28 362.201 499.8 360.461 499.46 358.861C499.28 358.061 499.16 357.291 499.05 356.571C498.95 355.851 498.86 355.171 498.81 354.551C498.69 353.311 498.64 352.301 498.61 351.611C498.58 350.911 498.54 350.531 498.5 350.531H498.51Z"
      fill="#A36957" />
    <path
      d="M489.391 435.909V434.299L506.951 433.529L507.001 440.169L505.921 440.239C501.101 440.519 481.381 441.339 478.151 440.369C474.551 439.289 489.391 435.899 489.391 435.899V435.909Z"
      fill="#455A64" />
    <path
      d="M507.252 439.78C507.252 439.78 507.152 439.8 506.952 439.81C506.692 439.83 506.412 439.84 506.092 439.87C505.232 439.91 504.172 439.96 502.912 440.02C500.232 440.13 496.522 440.22 492.422 440.24C488.322 440.26 484.612 440.19 481.932 440.11C480.682 440.06 479.622 440.02 478.752 439.99C478.432 439.97 478.152 439.96 477.892 439.94C477.692 439.93 477.592 439.92 477.592 439.91C477.592 439.91 477.692 439.9 477.892 439.9C478.152 439.9 478.432 439.9 478.752 439.9C479.612 439.91 480.682 439.93 481.932 439.95C484.612 439.99 488.322 440.04 492.422 440.02C496.512 440 500.222 439.93 502.912 439.86C504.162 439.83 505.222 439.8 506.092 439.78C506.412 439.78 506.692 439.77 506.952 439.76C507.152 439.76 507.252 439.76 507.252 439.76V439.78Z"
      fill="#263238" />
    <path
      d="M483.701 440.338C483.641 440.338 483.581 439.588 483.101 438.828C482.631 438.058 481.981 437.668 482.011 437.618C482.021 437.568 482.771 437.888 483.281 438.718C483.791 439.538 483.751 440.358 483.701 440.348V440.338Z"
      fill="#263238" />
    <path
      d="M488.85 437.71C488.85 437.71 488.55 437.44 488.3 437.04C488.04 436.64 487.88 436.29 487.92 436.26C487.97 436.23 488.22 436.53 488.47 436.93C488.73 437.33 488.89 437.68 488.85 437.71Z"
      fill="#263238" />
    <path
      d="M490.261 436.948C490.261 436.948 489.941 436.808 489.641 436.538C489.341 436.268 489.121 436.018 489.161 435.968C489.201 435.928 489.481 436.108 489.781 436.378C490.081 436.648 490.301 436.898 490.261 436.948Z"
      fill="#263238" />
    <path
      d="M491.15 435.299C491.15 435.359 490.74 435.409 490.24 435.419C489.74 435.419 489.33 435.389 489.33 435.329C489.33 435.269 489.74 435.219 490.24 435.209C490.74 435.209 491.15 435.239 491.15 435.299Z"
      fill="#263238" />
    <path
      d="M491.461 434.139C491.481 434.189 491.041 434.389 490.441 434.439C489.851 434.489 489.381 434.359 489.391 434.299C489.391 434.239 489.861 434.269 490.421 434.229C490.981 434.189 491.431 434.079 491.451 434.139H491.461Z"
      fill="#263238" />
    <path
      d="M488.251 436.179C488.251 436.179 487.821 436.259 487.131 436.179C486.781 436.139 486.371 436.059 485.931 435.919C485.711 435.839 485.481 435.789 485.241 435.639C485.131 435.569 485.001 435.459 484.961 435.289C484.911 435.119 485.001 434.929 485.131 434.839C486.201 434.279 487.281 434.879 487.681 435.429C487.901 435.709 488.001 435.989 488.051 436.179C488.101 436.369 488.091 436.479 488.081 436.479C488.041 436.489 488.001 436.039 487.561 435.519C487.341 435.269 487.021 435.019 486.601 434.899C486.201 434.779 485.641 434.749 485.261 434.999C485.081 435.129 485.151 435.339 485.351 435.459C485.541 435.579 485.771 435.649 485.981 435.729C486.411 435.869 486.801 435.969 487.141 436.029C487.811 436.149 488.241 436.149 488.241 436.179H488.251Z"
      fill="#263238" />
    <path
      d="M487.961 436.239C487.961 436.239 487.781 435.969 487.831 435.459C487.861 435.209 487.951 434.919 488.131 434.639C488.331 434.389 488.581 434.049 489.061 434.059C489.321 434.089 489.451 434.389 489.411 434.579C489.391 434.779 489.301 434.949 489.221 435.079C489.051 435.359 488.871 435.589 488.691 435.759C488.341 436.109 488.061 436.239 488.051 436.219C488.031 436.189 488.271 436.019 488.581 435.659C488.731 435.479 488.901 435.259 489.051 434.979C489.201 434.739 489.311 434.319 489.031 434.269C488.751 434.239 488.461 434.519 488.291 434.749C488.111 434.989 488.021 435.259 487.971 435.479C487.891 435.939 487.991 436.229 487.951 436.239H487.961Z"
      fill="#263238" />
    <path
      d="M506.881 434.99C506.881 434.99 506.381 434.94 505.591 435.04C504.811 435.13 503.721 435.45 502.781 436.21C501.841 436.97 501.281 437.96 501.031 438.7C500.771 439.45 500.741 439.95 500.701 439.95C500.691 439.95 500.681 439.82 500.701 439.6C500.721 439.37 500.771 439.05 500.891 438.66C501.121 437.88 501.671 436.84 502.651 436.05C503.631 435.26 504.771 434.95 505.581 434.89C505.991 434.86 506.321 434.88 506.541 434.91C506.761 434.94 506.891 434.98 506.881 434.99Z"
      fill="#263238" />
    <path
      d="M498.462 438.38C498.462 438.43 497.332 438.62 495.912 438.62C494.492 438.62 493.352 438.46 493.352 438.4C493.352 438.34 494.502 438.41 495.902 438.4C497.312 438.4 498.452 438.31 498.452 438.37L498.462 438.38Z"
      fill="#263238" />
    <path
      d="M501.891 438.35C501.891 438.35 501.801 438.59 501.681 438.85C501.561 439.11 501.501 439.34 501.441 439.34C501.381 439.34 501.351 439.06 501.491 438.76C501.621 438.46 501.851 438.3 501.891 438.34V438.35Z"
      fill="#263238" />
    <path
      d="M503.172 436.74C503.172 436.74 503.102 436.96 502.922 437.15C502.742 437.33 502.562 437.45 502.522 437.41C502.482 437.37 502.592 437.19 502.772 437C502.952 436.82 503.132 436.7 503.172 436.74Z"
      fill="#263238" />
    <path
      d="M505.021 435.99C505.011 436.05 504.781 436.05 504.521 436.14C504.261 436.23 504.081 436.37 504.031 436.33C503.981 436.3 504.131 436.05 504.451 435.94C504.771 435.83 505.041 435.94 505.021 435.99Z"
      fill="#263238" />
    <path
      d="M506.331 435.639C506.351 435.689 506.251 435.779 506.111 435.839C505.971 435.899 505.831 435.899 505.811 435.839C505.791 435.789 505.891 435.699 506.031 435.639C506.171 435.579 506.311 435.579 506.331 435.639Z"
      fill="#263238" />
    <path
      d="M530.561 434.36L529.891 432.89L545.601 424.99L548.371 431.03L547.411 431.54C543.131 433.77 525.471 442.59 522.131 443.03C518.401 443.52 530.561 434.35 530.561 434.35V434.36Z"
      fill="#455A64" />
    <path
      d="M548.43 430.571C548.43 430.571 548.34 430.631 548.17 430.721C547.94 430.841 547.69 430.971 547.41 431.121C546.64 431.511 545.69 431.991 544.57 432.561C542.17 433.761 538.82 435.361 535.09 437.061C531.36 438.751 527.95 440.211 525.46 441.241C524.3 441.711 523.31 442.111 522.51 442.431C522.21 442.551 521.95 442.651 521.7 442.741C521.51 442.811 521.42 442.841 521.41 442.831C521.41 442.831 521.5 442.781 521.68 442.701C521.92 442.601 522.18 442.481 522.47 442.351C523.26 442.011 524.24 441.591 525.39 441.101C527.86 440.041 531.26 438.561 534.99 436.871C538.72 435.181 542.07 433.591 544.49 432.431C545.62 431.891 546.58 431.431 547.36 431.051C547.65 430.911 547.91 430.791 548.14 430.681C548.32 430.601 548.42 430.561 548.42 430.561L548.43 430.571Z"
      fill="#263238" />
    <path
      d="M527.18 440.74C527.12 440.77 526.77 440.1 526.01 439.6C525.27 439.09 524.51 439 524.52 438.94C524.51 438.89 525.33 438.88 526.13 439.43C526.94 439.97 527.23 440.73 527.18 440.74Z"
      fill="#263238" />
    <path
      d="M530.8 436.22C530.8 436.22 530.42 436.1 530.02 435.84C529.62 435.58 529.33 435.33 529.36 435.28C529.39 435.23 529.74 435.4 530.14 435.66C530.54 435.92 530.83 436.17 530.8 436.22Z"
      fill="#263238" />
    <path
      d="M531.781 434.96C531.761 435.02 531.441 434.96 531.051 434.84C530.661 434.72 530.371 434.57 530.381 434.52C530.401 434.46 530.721 434.52 531.111 434.64C531.501 434.76 531.791 434.91 531.781 434.96Z"
      fill="#263238" />
    <path
      d="M531.911 433.081C531.931 433.131 531.581 433.351 531.131 433.561C530.671 433.771 530.281 433.901 530.261 433.851C530.241 433.801 530.591 433.581 531.041 433.371C531.501 433.161 531.891 433.031 531.911 433.081Z"
      fill="#263238" />
    <path
      d="M531.711 431.9C531.711 431.9 531.431 432.31 530.911 432.59C530.391 432.88 529.911 432.95 529.901 432.9C529.881 432.84 530.321 432.68 530.811 432.41C531.311 432.14 531.681 431.86 531.721 431.91L531.711 431.9Z"
      fill="#263238" />
    <path
      d="M529.631 435.08C529.631 435.08 529.271 435.33 528.601 435.54C528.271 435.64 527.861 435.74 527.401 435.79C527.171 435.81 526.941 435.85 526.661 435.82C526.531 435.8 526.371 435.75 526.261 435.62C526.151 435.49 526.151 435.28 526.231 435.14C526.981 434.19 528.211 434.3 528.801 434.64C529.121 434.81 529.321 435.02 529.441 435.17C529.561 435.33 529.601 435.43 529.591 435.43C529.561 435.46 529.341 435.06 528.731 434.77C528.431 434.63 528.031 434.54 527.601 434.6C527.191 434.66 526.661 434.86 526.421 435.24C526.311 435.43 526.461 435.6 526.691 435.62C526.911 435.65 527.161 435.62 527.381 435.61C527.831 435.57 528.231 435.49 528.561 435.41C529.221 435.24 529.611 435.07 529.631 435.1V435.08Z"
      fill="#263238" />
    <path
      d="M529.39 435.251C529.39 435.251 529.11 435.071 528.95 434.591C528.87 434.351 528.83 434.051 528.89 433.721C528.97 433.411 529.06 432.991 529.51 432.811C529.76 432.731 530.35 433.241 530.39 433.431C530.45 433.621 530.09 433.521 530.08 433.681C530.04 434.001 529.97 434.291 529.88 434.521C529.7 434.981 529.5 435.211 529.48 435.201C529.45 435.181 529.6 434.921 529.74 434.471C529.81 434.241 529.87 433.971 529.89 433.661C529.93 433.381 529.85 432.951 529.57 433.021C529.3 433.111 529.16 433.481 529.09 433.761C529.03 434.051 529.05 434.331 529.1 434.561C529.21 435.011 529.43 435.231 529.4 435.261L529.39 435.251Z"
      fill="#263238" />
    <path
      d="M546.129 426.36C546.129 426.36 545.649 426.52 544.969 426.93C544.289 427.33 543.429 428.07 542.879 429.15C542.329 430.23 542.229 431.36 542.299 432.14C542.369 432.93 542.549 433.4 542.509 433.41C542.499 433.41 542.439 433.3 542.359 433.09C542.279 432.88 542.199 432.56 542.139 432.15C542.029 431.35 542.099 430.17 542.679 429.04C543.249 427.92 544.169 427.16 544.879 426.79C545.239 426.6 545.549 426.48 545.769 426.42C545.989 426.36 546.109 426.34 546.119 426.35L546.129 426.36Z"
      fill="#263238" />
    <path
      d="M539.84 432.9C539.84 432.9 538.9 433.58 537.61 434.17C536.32 434.76 535.21 435.07 535.19 435.02C535.17 434.96 536.24 434.56 537.52 433.98C538.8 433.4 539.81 432.85 539.84 432.91V432.9Z"
      fill="#263238" />
    <path
      d="M542.95 431.47C543.01 431.49 542.96 431.73 542.97 432.02C542.97 432.31 543.01 432.54 542.95 432.57C542.9 432.59 542.75 432.36 542.75 432.02C542.75 431.69 542.89 431.45 542.95 431.47Z"
      fill="#263238" />
    <path
      d="M543.47 429.47C543.52 429.49 543.5 429.7 543.41 429.94C543.32 430.18 543.2 430.36 543.15 430.34C543.1 430.32 543.12 430.11 543.21 429.87C543.3 429.63 543.42 429.45 543.47 429.47Z"
      fill="#263238" />
    <path
      d="M544.849 428.04C544.859 428.1 544.649 428.19 544.449 428.38C544.249 428.56 544.139 428.77 544.079 428.75C544.019 428.75 544.059 428.45 544.299 428.22C544.549 427.99 544.829 427.98 544.839 428.03L544.849 428.04Z"
      fill="#263238" />
    <path
      d="M545.9 427.18C545.9 427.18 545.89 427.34 545.78 427.46C545.67 427.57 545.55 427.63 545.51 427.59C545.47 427.55 545.52 427.43 545.63 427.31C545.74 427.2 545.86 427.14 545.9 427.18Z"
      fill="#263238" />
    <path
      d="M526.232 223.64L523.302 187.94L538.332 188.21C538.332 188.21 539.032 182.95 536.812 171.4C535.452 164.32 530.742 159.98 525.452 157.4V157.31L524.992 157.19C518.262 154.04 511.222 153.6 511.222 153.6L492.772 153.81C492.772 153.81 478.682 152.05 470.882 162.1C467.882 165.97 458.582 192.46 458.582 192.46L480.722 203.12L478.612 188.43C478.612 188.43 479.032 199.08 480.392 202.45C481.152 204.33 483.342 210.17 483.342 210.17L483.052 227.78L526.212 223.64H526.232Z"
      fill="#B79233" />
    <path d="M516.052 182.759L513.322 194.419H539.152L537.452 174.859L516.052 182.759Z"
      fill="#B79233" />
    <path
      d="M539.152 194.42C539.152 194.34 537.852 194.21 535.732 194.08C533.612 193.96 530.682 193.85 527.452 193.87C524.212 193.89 521.282 194.03 519.172 194.19C517.052 194.36 515.752 194.54 515.762 194.61C515.762 194.69 517.082 194.66 519.192 194.59C521.312 194.53 524.232 194.45 527.452 194.43C530.682 194.42 533.602 194.46 535.722 194.48C537.842 194.5 539.152 194.5 539.152 194.42Z"
      fill="#263238" />
    <path
      d="M514.942 174.77C514.862 174.77 514.832 175.91 514.852 177.74C514.872 179.57 514.942 182.1 515.042 184.89C515.152 187.68 515.282 190.21 515.402 192.03C515.522 193.86 515.642 194.98 515.722 194.98C515.802 194.98 515.832 193.84 515.812 192.01C515.792 190.18 515.722 187.65 515.622 184.86C515.512 182.07 515.382 179.55 515.262 177.72C515.142 175.89 515.022 174.77 514.942 174.77Z"
      fill="#263238" />
    <path
      d="M483.351 210.16C483.351 210.16 483.161 209.82 482.911 209.16C482.661 208.51 482.331 207.55 481.941 206.37C481.171 203.99 480.221 200.67 479.471 196.92C478.731 193.17 478.361 189.73 478.251 187.23C478.191 185.98 478.171 184.97 478.191 184.27C478.201 183.57 478.231 183.18 478.261 183.18C478.341 183.18 478.401 184.72 478.611 187.2C478.821 189.68 479.241 193.09 479.981 196.81C480.721 200.53 481.611 203.85 482.291 206.25C482.611 207.36 482.881 208.31 483.101 209.09C483.291 209.76 483.381 210.14 483.341 210.15L483.351 210.16Z"
      fill="#263238" />
    <path
      d="M489.882 222.39C489.742 222.43 489.342 221.51 488.992 220.34C488.632 219.17 488.462 218.18 488.602 218.14C488.742 218.1 489.142 219.02 489.492 220.19C489.852 221.36 490.022 222.35 489.882 222.39Z"
      fill="#263238" />
    <path
      d="M492.111 222.229C491.981 222.259 491.541 220.889 491.521 219.119C491.491 217.349 491.881 215.959 492.021 215.989C492.171 216.019 492.021 217.399 492.041 219.109C492.061 220.819 492.261 222.199 492.111 222.229Z"
      fill="#263238" />
    <path
      d="M481.181 203.6C481.121 203.73 475.961 201.28 469.671 198.14C463.381 195 458.331 192.34 458.391 192.21C458.451 192.08 463.611 194.53 469.901 197.67C476.191 200.81 481.241 203.47 481.181 203.6Z"
      fill="#263238" />
    <path
      d="M490.26 157.251C490.38 152.191 490.4 146.861 490.4 146.861C490.4 146.861 483.91 145.611 482.78 137.071C481.7 128.931 484.72 109.821 484.72 109.821C494.2 106.241 504.05 109.481 510.54 117.161L508.93 158.231C508.74 163.001 504.49 166.641 499.39 166.401C494.24 166.161 490.15 162.061 490.26 157.241V157.251Z"
      fill="#B78876" />
    <path
      d="M484.231 125.1C484.191 125.68 484.651 126.18 485.251 126.23C485.851 126.28 486.361 125.85 486.401 125.28C486.441 124.7 485.981 124.2 485.381 124.15C484.781 124.1 484.261 124.53 484.231 125.1Z"
      fill="#263238" />
    <path
      d="M483.83 123.67C483.96 123.82 484.8 123.23 485.98 123.26C487.15 123.28 488 123.9 488.13 123.76C488.19 123.7 488.06 123.44 487.7 123.16C487.34 122.88 486.72 122.6 485.98 122.58C485.25 122.57 484.63 122.82 484.27 123.08C483.9 123.35 483.77 123.6 483.84 123.67H483.83Z"
      fill="#263238" />
    <path
      d="M496.141 125.841C496.101 126.421 496.561 126.921 497.161 126.971C497.761 127.021 498.271 126.591 498.311 126.021C498.351 125.451 497.891 124.941 497.291 124.891C496.691 124.841 496.171 125.271 496.141 125.841Z"
      fill="#263238" />
    <path
      d="M496.061 124.411C496.191 124.561 497.031 123.971 498.211 124.001C499.381 124.021 500.231 124.641 500.361 124.501C500.421 124.441 500.291 124.181 499.921 123.891C499.561 123.611 498.941 123.331 498.201 123.311C497.471 123.301 496.851 123.551 496.491 123.811C496.121 124.081 495.991 124.331 496.061 124.401V124.411Z"
      fill="#263238" />
    <path
      d="M491.571 133.001C491.571 132.931 490.851 132.791 489.671 132.611C489.371 132.571 489.091 132.501 489.041 132.301C488.981 132.081 489.111 131.761 489.261 131.421C489.561 130.701 489.871 129.951 490.201 129.161C491.511 125.941 492.471 123.301 492.341 123.241C492.211 123.191 491.041 125.751 489.721 128.971C489.401 129.761 489.101 130.521 488.811 131.241C488.691 131.581 488.481 131.961 488.621 132.411C488.691 132.641 488.911 132.801 489.101 132.861C489.291 132.921 489.461 132.931 489.611 132.941C490.801 133.031 491.541 133.061 491.541 132.991L491.571 133.001Z"
      fill="#263238" />
    <path
      d="M490.41 146.871C490.41 146.871 496.12 147.391 501.88 144.131C501.88 144.131 498.97 149.901 490.48 148.881L490.42 146.871H490.41Z"
      fill="#A36957" />
    <path
      d="M499.81 121.021C499.57 121.391 498.68 121.221 497.68 121.041C496.68 120.841 495.79 120.661 495.71 120.231C495.61 119.821 496.64 119.251 497.98 119.501C499.31 119.751 500.06 120.661 499.82 121.011L499.81 121.021Z"
      fill="#263238" />
    <path
      d="M488.149 119.299C488.059 119.729 487.099 119.879 485.999 119.939C484.899 119.979 483.929 119.919 483.799 119.499C483.669 119.099 484.599 118.439 485.929 118.379C487.259 118.319 488.239 118.889 488.149 119.299Z"
      fill="#263238" />
    <path
      d="M491.591 135.81C491.341 135.74 491.061 135.88 490.941 136.11C490.791 136.38 490.861 136.74 491.091 136.94C491.321 137.14 491.701 137.14 491.941 136.95C492.181 136.76 492.261 136.39 492.121 136.12C491.981 135.85 491.641 135.7 491.341 135.79"
      fill="#A36957" />
    <path
      d="M491.871 135.93C491.921 135.88 491.681 135.59 491.171 135.71C490.931 135.76 490.621 135.97 490.531 136.34C490.441 136.68 490.531 137.12 490.881 137.4C491.261 137.66 491.711 137.61 492.001 137.4C492.321 137.19 492.411 136.81 492.361 136.57C492.261 136.04 491.871 135.96 491.861 136.03C491.821 136.1 492.001 136.28 491.961 136.59C491.941 136.74 491.871 136.89 491.721 136.96C491.581 137.04 491.341 137.04 491.211 136.94C491.071 136.84 491.001 136.62 491.031 136.46C491.051 136.29 491.161 136.17 491.301 136.09C491.581 135.93 491.821 136.01 491.861 135.94L491.871 135.93Z"
      fill="#263238" />
    <path
      d="M506.621 127.21C505.611 129.55 503.141 131.36 503.481 133.89C503.701 135.52 504.751 137.05 504.551 138.68C504.291 140.73 502.161 142.16 501.861 144.21C501.491 146.72 503.931 148.67 504.911 151.02C506.331 154.43 504.511 158.27 504.471 161.97C504.401 167.63 509.221 172.92 514.861 173.39C517.141 173.58 519.711 172.89 520.901 170.93C521.881 169.31 521.681 167.26 522.271 165.46C523.141 162.78 525.691 160.83 526.231 158.06C527.211 153.02 521.121 148.86 521.521 143.74C521.691 141.55 523.041 139.65 523.611 137.53C524.361 134.76 523.671 131.64 521.821 129.44C520.321 127.65 518.141 126.48 516.861 124.53C515.411 122.32 515.361 119.51 514.811 116.92C513.481 110.61 508.741 105.13 502.691 102.9C496.641 100.67 489.471 101.76 484.361 105.69C484.361 105.69 482.911 112.28 489.671 113.38C496.441 114.48 499.571 113.21 500.331 115.92C500.331 115.92 499.561 119.09 502.361 122.11C505.161 125.14 507.791 124.5 506.611 127.22L506.621 127.21Z"
      fill="#263238" />
    <path
      d="M517.412 172.919C517.412 172.919 517.202 172.919 516.792 172.859C516.392 172.799 515.802 172.659 515.072 172.399C513.632 171.869 511.582 170.719 509.842 168.519C508.972 167.429 508.162 166.109 507.612 164.559C507.052 163.019 506.732 161.269 506.702 159.429C506.662 157.589 506.922 155.649 507.422 153.719C507.672 152.749 508.002 151.789 508.382 150.829C508.752 149.869 509.212 148.939 509.482 147.959C509.762 146.979 509.732 145.979 509.482 145.029C509.222 144.079 508.772 143.179 508.342 142.289C507.902 141.399 507.462 140.519 507.172 139.579C506.882 138.649 506.772 137.639 506.962 136.709C507.362 134.829 508.502 133.429 509.182 131.999C509.892 130.579 510.122 129.089 510.092 127.739C509.972 125.019 508.812 122.999 507.862 121.839C506.872 120.679 506.122 120.229 506.162 120.189C506.162 120.189 506.952 120.559 508.012 121.709C509.032 122.859 510.282 124.899 510.452 127.719C510.512 129.109 510.302 130.689 509.572 132.179C508.882 133.659 507.782 135.069 507.432 136.789C507.082 138.529 507.902 140.319 508.792 142.059C509.232 142.949 509.692 143.869 509.972 144.889C510.252 145.899 510.292 147.049 509.982 148.089C509.702 149.139 509.232 150.079 508.862 151.019C508.492 151.959 508.162 152.909 507.912 153.849C507.412 155.739 507.152 157.629 507.182 159.419C507.192 163.019 508.432 166.179 510.122 168.289C511.782 170.459 513.742 171.629 515.142 172.199C516.562 172.769 517.422 172.859 517.402 172.919H517.412Z"
      fill="#455A64" />
    <path
      d="M516.421 122.46C516.421 122.46 515.901 122.59 514.931 122.68C513.971 122.76 512.551 122.87 510.811 122.57C509.121 122.26 506.971 121.43 505.611 119.42C504.941 118.41 504.681 117.19 504.251 116.06C503.841 114.92 503.051 113.93 501.971 113.25C499.781 111.86 497.211 111.69 494.961 111.42C492.701 111.16 490.571 110.68 489.131 109.6C487.681 108.57 486.941 107.23 486.741 106.26C486.631 105.78 486.641 105.39 486.661 105.13C486.701 104.87 486.721 104.74 486.741 104.74C486.801 104.74 486.671 105.29 486.931 106.2C487.171 107.1 487.921 108.34 489.331 109.29C490.721 110.27 492.751 110.7 495.001 110.93C497.231 111.18 499.901 111.32 502.241 112.8C503.401 113.52 504.291 114.65 504.711 115.86C505.161 117.05 505.401 118.22 506.001 119.14C507.221 121 509.241 121.85 510.861 122.19C512.531 122.53 513.941 122.48 514.901 122.46C515.861 122.43 516.401 122.4 516.401 122.44L516.421 122.46Z"
      fill="#455A64" />
    <path
      d="M513.932 114.321C513.932 114.321 513.532 114.471 512.762 114.491C512.002 114.511 510.862 114.381 509.602 113.781C508.972 113.481 508.332 113.061 507.742 112.491C507.142 111.921 506.652 111.191 506.192 110.421C505.292 108.901 504.422 107.021 502.552 106.251C500.722 105.461 498.702 105.641 496.952 105.761C495.182 105.931 493.522 105.991 492.172 105.721C490.812 105.481 489.792 104.921 489.222 104.401C488.932 104.141 488.742 103.911 488.632 103.741C488.522 103.571 488.472 103.481 488.482 103.471C488.522 103.441 488.762 103.791 489.352 104.241C489.932 104.691 490.922 105.171 492.232 105.361C493.552 105.571 495.132 105.491 496.912 105.291C498.672 105.151 500.752 104.931 502.762 105.781C503.762 106.201 504.572 106.951 505.152 107.761C505.742 108.571 506.162 109.421 506.612 110.181C507.052 110.951 507.502 111.651 508.052 112.191C508.592 112.741 509.182 113.161 509.772 113.461C510.942 114.071 512.032 114.261 512.772 114.301C513.512 114.341 513.932 114.291 513.942 114.331L513.932 114.321Z"
      fill="#455A64" />
    <path
      d="M520.4 170.761C520.35 170.741 520.67 170.091 521.04 168.861C521.41 167.631 521.77 165.791 521.71 163.501C521.63 161.231 521.09 158.481 519.58 155.861C518.85 154.551 517.74 153.381 516.83 151.951C516.38 151.231 515.99 150.431 515.82 149.541C515.65 148.651 515.75 147.701 516.04 146.841C516.6 145.111 517.61 143.661 517.82 142.071C518.09 140.481 517.28 139.031 516.52 137.731C516.13 137.071 515.75 136.421 515.45 135.741C515.15 135.061 514.96 134.341 514.88 133.651C514.73 132.261 514.89 130.981 514.99 129.841C515.28 127.561 515.07 125.681 514.52 124.531C513.99 123.361 513.29 123.011 513.34 122.961C513.34 122.961 513.39 122.971 513.46 123.021C513.53 123.071 513.65 123.131 513.78 123.251C514.05 123.471 514.4 123.851 514.7 124.441C515.33 125.611 515.6 127.571 515.36 129.871C515.28 131.021 515.14 132.281 515.31 133.601C515.44 134.931 516.13 136.181 516.93 137.481C517.32 138.141 517.73 138.831 518.02 139.611C518.32 140.381 518.45 141.271 518.32 142.131C518.08 143.881 517.05 145.361 516.53 146.981C516.26 147.791 516.18 148.631 516.32 149.431C516.47 150.231 516.82 150.981 517.25 151.671C518.11 153.051 519.23 154.241 519.98 155.611C521.51 158.321 522.03 161.151 522.07 163.481C522.09 165.821 521.66 167.691 521.23 168.911C521.01 169.521 520.82 169.991 520.65 170.291C520.5 170.601 520.41 170.751 520.4 170.751V170.761Z"
      fill="#455A64" />
    <path
      d="M479.661 357.089C479.661 357.089 472.931 293.249 472.541 269.659C472.151 246.069 483.151 222.789 483.151 222.789L526.231 220.969C526.231 220.969 534.751 244.909 534.901 254.959C535.201 274.499 529.711 293.789 530.341 309.289L531.781 357.089"
      fill="#263238" />
    <path
      d="M533.22 278.6C533.22 278.6 532.98 278.8 532.52 279.13C532.4 279.22 532.27 279.31 532.13 279.41C532 279.52 531.86 279.67 531.71 279.81C531.41 280.1 531.05 280.43 530.75 280.88C529.36 282.58 528.34 285.63 527.38 289.43C526.85 291.32 526.31 293.43 525.2 295.5C524.9 296 524.63 296.54 524.24 297.01C524.05 297.25 523.88 297.51 523.68 297.74L523.02 298.4C522.12 299.29 520.98 299.95 519.78 300.48C517.37 301.54 514.65 302.04 512.16 303.29C509.66 304.51 507.78 306.87 506.63 309.59C505.42 312.3 504.68 315.14 503.67 317.8C502.68 320.44 501.32 323 499.17 324.62C497.04 326.3 494.4 326.68 492.12 326.83C489.8 326.97 487.65 326.9 485.73 327.19C483.81 327.46 482.11 328.06 480.91 329.01C479.7 329.96 479 331.15 478.67 332.17C478.33 333.2 478.39 334.07 478.5 334.62C478.61 335.18 478.77 335.45 478.73 335.46C478.73 335.46 478.54 335.21 478.39 334.64C478.24 334.08 478.14 333.18 478.47 332.1C478.78 331.03 479.48 329.79 480.72 328.78C481.96 327.77 483.71 327.12 485.67 326.82C487.63 326.5 489.8 326.55 492.09 326.39C494.35 326.23 496.87 325.83 498.88 324.23C500.91 322.69 502.22 320.22 503.19 317.61C504.18 314.98 504.92 312.14 506.15 309.37C507.31 306.6 509.3 304.09 511.92 302.83C514.51 301.55 517.23 301.06 519.58 300.04C520.75 299.53 521.84 298.9 522.7 298.07L523.34 297.44C523.54 297.22 523.7 296.97 523.88 296.75C524.26 296.3 524.52 295.78 524.81 295.3C525.91 293.3 526.46 291.21 527.02 289.33C528.03 285.55 529.11 282.46 530.59 280.76C530.91 280.31 531.29 279.98 531.6 279.7C531.76 279.56 531.9 279.42 532.04 279.31C532.19 279.22 532.33 279.13 532.45 279.05C532.94 278.74 533.2 278.59 533.21 278.6H533.22Z"
      fill="#FAFAFA" />
    <path
      d="M533.491 249.059C533.491 249.059 533.531 249.349 533.551 249.919C533.551 250.479 533.491 251.319 533.251 252.359C532.751 254.439 531.231 257.299 528.381 259.889C526.971 261.189 525.281 262.439 523.331 263.579C521.401 264.729 519.271 265.819 517.091 267.049C514.921 268.289 512.671 269.679 510.701 271.539C508.701 273.369 507.211 275.779 505.861 278.339C504.501 280.889 503.301 283.479 501.671 285.729C500.861 286.849 499.951 287.879 498.941 288.749C497.921 289.619 496.811 290.329 495.691 290.919C493.431 292.089 491.131 292.819 489.001 293.489C486.861 294.149 484.871 294.739 483.121 295.469C481.371 296.189 479.861 297.009 478.641 297.869C477.421 298.739 476.491 299.639 475.831 300.459C474.501 302.109 474.221 303.299 474.141 303.269C474.121 303.269 474.221 302.989 474.421 302.459C474.651 301.949 475.011 301.189 475.671 300.339C476.321 299.489 477.241 298.539 478.471 297.639C479.701 296.739 481.221 295.889 482.981 295.139C484.741 294.379 486.741 293.769 488.871 293.089C490.991 292.409 493.271 291.669 495.471 290.509C496.571 289.929 497.641 289.239 498.621 288.389C499.591 287.539 500.481 286.539 501.261 285.449C502.851 283.249 504.041 280.679 505.411 278.109C506.761 275.549 508.301 273.069 510.361 271.189C512.381 269.289 514.671 267.889 516.861 266.649C519.061 265.419 521.191 264.349 523.121 263.229C525.051 262.129 526.731 260.909 528.141 259.649C530.971 257.139 532.511 254.369 533.061 252.339C533.601 250.289 533.421 249.089 533.501 249.089L533.491 249.059Z"
      fill="#FAFAFA" />
    <path
      d="M472.761 273.039C472.761 273.039 472.721 272.979 472.671 272.849C472.631 272.719 472.541 272.519 472.481 272.249C472.361 271.719 472.281 270.869 472.581 269.849C473.141 267.809 475.351 265.279 478.911 264.009C480.681 263.399 482.701 263.029 484.791 262.479C486.861 261.919 489.121 261.139 490.811 259.409C491.651 258.549 492.361 257.539 492.941 256.419C493.511 255.289 493.991 254.079 494.431 252.829C495.331 250.339 496.081 247.629 497.601 245.159C499.111 242.679 501.571 240.949 504.121 240.089C506.661 239.159 509.231 238.739 511.601 238.189C513.991 237.669 516.221 236.999 518.111 235.969C519.981 234.909 521.461 233.499 522.511 231.999C524.671 228.999 525.231 225.929 525.311 223.899C525.361 221.839 525.031 220.709 525.101 220.699C525.101 220.699 525.501 221.799 525.521 223.899C525.501 225.959 524.991 229.109 522.821 232.209C521.761 233.759 520.251 235.229 518.331 236.339C516.391 237.409 514.111 238.109 511.721 238.649C509.331 239.209 506.781 239.639 504.311 240.559C501.821 241.419 499.511 243.049 498.051 245.429C496.581 247.799 495.831 250.479 494.921 252.989C494.471 254.249 493.981 255.479 493.391 256.639C492.781 257.789 492.041 258.849 491.151 259.739C489.361 261.559 487.001 262.339 484.901 262.889C482.771 263.429 480.771 263.769 479.031 264.349C475.561 265.529 473.361 267.959 472.771 269.899C472.451 270.869 472.491 271.689 472.581 272.219C472.691 272.749 472.781 273.019 472.761 273.029V273.039Z"
      fill="#FAFAFA" />
    <path
      d="M529.782 327.02C529.782 327.02 529.821 327.23 529.851 327.65C529.871 328.06 529.851 328.68 529.671 329.46C529.321 331 528.131 333.11 525.891 334.86C524.791 335.75 523.461 336.56 521.921 337.21C520.391 337.86 518.701 338.38 516.941 338.93C515.181 339.48 513.331 340.06 511.531 340.9C509.721 341.73 508.051 342.94 506.611 344.49C505.151 346.02 503.891 347.69 502.501 349.16C501.111 350.64 499.531 351.86 497.891 352.77C494.601 354.59 491.191 355.21 488.381 355.24C485.551 355.27 483.311 354.68 481.831 354.15C481.091 353.89 480.531 353.63 480.171 353.44C479.801 353.26 479.611 353.15 479.621 353.14C479.621 353.12 479.831 353.2 480.211 353.35C480.591 353.51 481.151 353.74 481.891 353.97C483.371 354.43 485.591 354.96 488.361 354.88C491.121 354.8 494.451 354.15 497.641 352.36C499.231 351.47 500.751 350.28 502.111 348.82C503.481 347.37 504.731 345.7 506.221 344.14C507.681 342.56 509.451 341.29 511.301 340.45C513.151 339.59 515.021 339.02 516.791 338.48C518.561 337.94 520.241 337.44 521.741 336.82C523.241 336.2 524.561 335.42 525.641 334.57C527.851 332.89 529.051 330.89 529.451 329.4C529.841 327.9 529.691 327.02 529.761 327.02H529.782Z"
      fill="#FAFAFA" />
    <path
      d="M524.87 194.461L516.54 194.661C515.99 197.471 514.66 199.391 514.66 199.391C507.69 187.301 502.29 171.101 500.95 164.591C501.15 163.941 501.38 163.221 501.67 162.421C502 161.491 501.72 159.731 501.56 158.761C501.33 157.311 500.92 155.361 500.8 154.461C500.43 151.711 499.99 151.281 499.03 151.591C497.72 152.011 499.57 159.321 498.5 159.471C497.93 159.561 497.22 157.051 497.02 155.001C496.82 152.951 495.89 146.631 495.21 146.211C494.22 145.591 493.35 146.571 493.6 148.611C493.85 150.681 494.17 156.851 493.09 156.931C492.02 157.011 491.12 146.541 491.12 146.541C491.12 146.541 491.29 144.261 490.03 144.321C487.76 144.421 489.53 155.461 489.73 156.501C489.87 157.231 488.69 157.361 488.59 156.571C488.48 155.761 487.94 146.101 485.63 146.181C483.86 146.241 487 155.281 486.01 157.371C485.02 159.461 484.33 150.261 482.63 150.381C482 150.431 481.54 150.551 482.69 155.761C483.31 158.561 485.14 163.711 486.73 167.971C489.41 182.421 501.17 228.651 519.6 220.181C529.91 215.451 534.1 194.461 534.1 194.461H524.88H524.87Z"
      fill="#B78876" />
    <path
      d="M489.321 157.201C489.321 157.201 489.401 157.211 489.561 157.171C489.701 157.131 489.981 156.951 489.941 156.591C489.921 155.971 489.821 155.071 489.681 153.901C489.571 152.721 489.221 151.311 489.221 149.641C489.211 148.801 489.221 147.901 489.281 146.951C489.311 146.471 489.321 145.981 489.431 145.511C489.511 145.061 489.811 144.541 490.161 144.601H490.201H490.221C490.581 144.581 490.851 144.861 490.971 145.281C491.101 145.691 491.131 146.161 491.101 146.621V146.641V146.651C491.331 149.211 491.591 152.011 492.171 155.001C492.251 155.371 492.331 155.751 492.451 156.131C492.511 156.321 492.571 156.511 492.661 156.701C492.711 156.801 492.751 156.891 492.831 157.001C492.901 157.091 492.991 157.241 493.251 157.261C493.671 157.231 493.791 156.911 493.881 156.731C493.971 156.521 494.031 156.321 494.071 156.121C494.161 155.711 494.201 155.311 494.231 154.901C494.341 153.271 494.281 151.601 494.161 149.901C494.121 149.041 493.911 148.181 494.061 147.401C494.131 147.021 494.291 146.631 494.551 146.471C494.681 146.391 494.821 146.381 494.981 146.421C495.061 146.441 495.141 146.481 495.221 146.521C495.291 146.581 495.271 146.551 495.331 146.671C495.661 147.391 495.841 148.321 496.021 149.181C496.201 150.071 496.351 150.971 496.491 151.881C496.631 152.791 496.761 153.721 496.871 154.641C496.961 155.571 497.091 156.541 497.331 157.481C497.451 157.951 497.581 158.421 497.781 158.891C497.881 159.121 497.991 159.361 498.191 159.601C498.261 159.701 498.501 159.891 498.791 159.821C499.071 159.731 499.151 159.501 499.201 159.371C499.361 158.791 499.311 158.321 499.311 157.811C499.291 157.311 499.251 156.821 499.211 156.331C499.141 155.491 499.061 154.651 499.031 153.831C499.021 153.421 499.021 153.011 499.061 152.631C499.081 152.441 499.121 152.251 499.181 152.111C499.211 152.041 499.251 151.991 499.281 151.961C499.301 151.941 499.311 151.961 499.321 151.931L499.451 151.891C500.111 151.621 500.331 152.541 500.511 153.281C500.661 154.061 500.761 154.861 500.921 155.651C501.181 157.231 501.521 158.791 501.701 160.291C501.771 161.041 501.831 161.811 501.611 162.441C501.371 163.161 501.141 163.881 500.911 164.591L500.891 164.651L500.911 164.721C502.131 170.101 503.821 174.911 505.381 179.181C506.961 183.451 508.551 187.131 509.941 190.151C511.331 193.171 512.581 195.491 513.451 197.081C513.891 197.831 514.231 198.431 514.491 198.871C514.731 199.271 514.861 199.481 514.881 199.471C514.891 199.471 514.791 199.241 514.571 198.821C514.331 198.371 514.011 197.761 513.611 196.991C512.801 195.381 511.601 193.041 510.251 190.011C508.901 186.981 507.361 183.291 505.811 179.021C504.281 174.751 502.621 169.931 501.441 164.611V164.741C501.661 164.041 501.901 163.341 502.131 162.621C502.401 161.801 502.321 161.011 502.251 160.231C502.071 158.671 501.741 157.151 501.481 155.561C501.331 154.781 501.231 153.971 501.071 153.161C500.981 152.751 500.891 152.341 500.661 151.921C500.551 151.721 500.381 151.491 500.111 151.361C499.831 151.241 499.551 151.271 499.321 151.331L499.151 151.381C499.071 151.411 498.981 151.451 498.921 151.511C498.791 151.621 498.721 151.751 498.671 151.871C498.561 152.111 498.531 152.331 498.501 152.551C498.451 152.991 498.451 153.421 498.471 153.841C498.501 154.691 498.581 155.531 498.651 156.371C498.691 156.861 498.731 157.341 498.751 157.821C498.771 158.291 498.781 158.801 498.681 159.161C498.661 159.261 498.611 159.251 498.661 159.301C498.661 159.301 498.661 159.361 498.661 159.341V159.301C498.661 159.301 498.691 159.261 498.671 159.251C498.671 159.251 498.641 159.231 498.611 159.191C498.501 159.061 498.391 158.861 498.301 158.651C498.121 158.231 497.991 157.781 497.881 157.321C497.651 156.401 497.521 155.491 497.431 154.551C497.321 153.611 497.191 152.681 497.041 151.761C496.901 150.841 496.741 149.931 496.561 149.041C496.351 148.141 496.221 147.271 495.801 146.371C495.771 146.281 495.601 146.081 495.491 146.021C495.381 145.951 495.251 145.901 495.121 145.861C494.851 145.791 494.521 145.821 494.271 145.981C493.771 146.311 493.621 146.831 493.531 147.281C493.451 147.751 493.461 148.211 493.511 148.651C493.561 149.081 493.601 149.501 493.631 149.921C493.761 151.601 493.821 153.261 493.721 154.851C493.691 155.241 493.651 155.641 493.581 156.011C493.541 156.201 493.491 156.371 493.431 156.531C493.401 156.611 493.361 156.681 493.321 156.721C493.281 156.801 493.251 156.701 493.261 156.841C493.311 156.741 493.261 156.791 493.221 156.711C493.181 156.661 493.141 156.571 493.101 156.501C493.031 156.341 492.971 156.161 492.911 155.991C492.801 155.641 492.711 155.271 492.631 154.901C492.041 151.961 491.761 149.151 491.501 146.621V146.651C491.521 146.141 491.491 145.651 491.341 145.161C491.261 144.921 491.151 144.681 490.951 144.491C490.751 144.301 490.471 144.211 490.211 144.221H490.271C489.871 144.151 489.571 144.401 489.411 144.641C489.241 144.891 489.161 145.161 489.101 145.421C488.991 145.941 488.991 146.441 488.971 146.921C488.931 147.881 488.931 148.791 488.951 149.631C488.981 151.341 489.371 152.751 489.501 153.911C489.671 155.071 489.801 155.971 489.861 156.581C489.921 156.871 489.691 157.051 489.571 157.101C489.431 157.161 489.351 157.171 489.351 157.181L489.321 157.201Z"
      fill="#A36957" />
    <path
      d="M424.201 208.231C424.201 208.231 421.431 208.101 418.411 208.891C413.251 210.251 404.331 215.651 403.961 222.331H410.431C410.431 222.331 406.801 230.051 407.871 229.331C410.631 227.481 416.141 221.881 416.141 221.881L424.201 208.221V208.231Z"
      fill="#B78876" />
    <path
      d="M512.521 92.0401C512.381 92.0501 511.791 86.7001 511.211 80.0801C510.631 73.4601 510.271 68.0901 510.421 68.0801C510.561 68.0701 511.151 73.4201 511.731 80.0401C512.311 86.6601 512.671 92.0301 512.521 92.0401Z"
      fill="#263238" />
    <path
      d="M540.931 68.4109C541.051 68.4909 536.671 74.8409 531.161 82.5909C525.651 90.3409 521.081 96.5509 520.961 96.4709C520.841 96.3909 525.221 90.0409 530.731 82.2909C536.241 74.5409 540.811 68.3309 540.921 68.4109H540.931Z"
      fill="#263238" />
    <path
      d="M552.73 97.1896C552.76 97.3296 547.65 98.4996 541.33 99.7996C535 101.1 529.85 102.04 529.82 101.9C529.79 101.76 534.9 100.59 541.22 99.2896C547.55 97.9896 552.7 97.0496 552.73 97.1896Z"
      fill="#263238" />
    <path
      d="M212.621 234.54L177.261 416.34L172.631 440.14L408.691 438.98C419.281 438.93 428.671 429.52 432.081 415.55L473.941 243.91C476.531 233.3 470.851 222.27 462.811 222.27L223.891 222.52C218.611 222.52 214.001 227.45 212.621 234.54Z"
      fill="#B79233" />
    <path
      d="M386.05 404.03L361.06 202.62C360.04 194.37 353.46 188.21 345.7 188.24L290.89 188.42C286.83 188.43 282.94 190.16 280.06 193.22L254.04 220.88L101.61 221.68C92.3002 221.73 85.1402 230.54 86.3702 240.45L109.58 426.6C110.61 434.84 117.17 440.99 124.92 440.97L390.57 440.45C420.16 441.06 422.98 432.33 422.98 432.33C389.07 439.84 386.05 404.06 386.05 404.04V404.03Z"
      fill="#B79233" />
    <path
      d="M423.991 103.779C423.351 103.509 422.891 102.879 422.861 102.139L422.461 92.8594C422.431 92.2794 422.681 91.7094 423.131 91.3394C423.581 90.9694 424.181 90.8294 424.751 90.9594C426.241 91.3094 427.891 90.9894 429.261 90.0694C430.531 89.2194 431.381 87.9794 431.591 86.6494C431.811 85.3294 431.401 83.8594 430.471 82.6294C429.471 81.3094 428.001 80.4294 426.531 80.2594C423.521 79.9094 420.271 82.2194 419.431 85.2994C419.161 86.2894 418.141 86.8794 417.141 86.6094C416.131 86.3294 415.561 85.3094 415.831 84.3194C417.141 79.4794 422.141 75.9994 426.961 76.5494C429.461 76.8394 431.831 78.2294 433.451 80.3794C434.991 82.4194 435.661 84.9194 435.281 87.2494C434.901 89.5894 433.461 91.7494 431.331 93.1694C429.791 94.1994 428.031 94.7594 426.271 94.8194L426.581 101.979C426.621 103.009 425.831 103.879 424.801 103.919C424.511 103.929 424.241 103.879 423.991 103.769V103.779Z"
      fill="#B79233" />
    <path
      d="M426.72 107.58C426.78 108.42 426.14 109.15 425.3 109.21C424.46 109.27 423.73 108.63 423.67 107.79C423.61 106.95 424.25 106.22 425.09 106.16C425.93 106.1 426.66 106.74 426.72 107.58Z"
      fill="#B79233" />
    <path
      d="M391.851 90.6897C391.851 90.6897 391.891 90.4797 391.941 90.0797C391.991 89.6497 392.051 89.0497 392.141 88.2897C392.181 87.4997 392.391 86.5396 392.621 85.4196C392.751 84.8596 392.821 84.2397 393.031 83.6097C393.231 82.9797 393.431 82.2996 393.651 81.5896C394.621 78.7796 396.111 75.4096 398.621 72.0596C401.111 68.7196 404.621 65.4097 409.121 62.9097C411.341 61.5897 413.871 60.6696 416.531 59.8496C419.231 59.2096 422.091 58.6596 425.081 58.7296C426.571 58.6496 428.081 58.8697 429.621 58.9997C430.391 59.0697 431.141 59.2797 431.911 59.4097C432.681 59.5497 433.461 59.6997 434.211 59.9697C437.301 60.7597 440.301 62.2196 443.151 64.0196C448.891 67.6296 453.721 73.4997 456.371 80.6197C457.701 84.1797 458.331 88.0796 458.331 92.0296C458.411 95.9796 457.641 99.9896 456.241 103.77L455.791 104.91L455.731 105.06L455.791 105.2C458.301 110.98 460.761 116.64 463.141 122.13L463.561 121.65C458.401 119.67 453.391 117.74 448.581 115.9L448.391 115.83L448.241 115.97C444.081 120 439.121 122.72 434.101 124.13C429.061 125.55 423.981 125.62 419.371 124.8C414.741 123.98 410.581 122.21 407.101 119.94C403.621 117.67 400.821 114.9 398.671 112.09C396.531 109.25 395.121 106.33 394.061 103.73C393.121 101.07 392.551 98.7096 392.271 96.7496C392.151 95.7696 392.051 94.9096 391.961 94.1497C391.941 93.3997 391.921 92.7696 391.911 92.2396C391.891 91.7496 391.881 91.3596 391.871 91.0696C391.861 90.8097 391.851 90.6696 391.841 90.6696C391.841 90.6696 391.821 90.7996 391.821 91.0696C391.821 91.3596 391.821 91.7496 391.801 92.2396C391.801 92.7696 391.801 93.4097 391.801 94.1597C391.881 94.9197 391.961 95.7996 392.061 96.7796C392.311 98.7496 392.851 101.14 393.771 103.84C394.811 106.48 396.211 109.44 398.351 112.34C400.511 115.2 403.321 118.03 406.841 120.36C410.351 122.69 414.571 124.51 419.271 125.36C423.961 126.21 429.121 126.16 434.251 124.73C439.371 123.3 444.431 120.55 448.681 116.45L448.351 116.52C453.151 118.37 458.161 120.3 463.321 122.3L464.071 122.59L463.741 121.82C461.361 116.33 458.901 110.66 456.401 104.88V105.17L456.861 104C458.301 100.14 459.081 96.0296 459.001 91.9996C459.001 87.9696 458.351 83.9796 456.991 80.3396C454.281 73.0696 449.331 67.0897 443.481 63.4297C440.561 61.5997 437.511 60.1297 434.361 59.3297C433.591 59.0697 432.801 58.9197 432.021 58.7697C431.241 58.6397 430.471 58.4297 429.691 58.3597C428.131 58.2297 426.601 58.0197 425.081 58.1097C422.041 58.0497 419.141 58.6196 416.401 59.2796C413.701 60.1196 411.141 61.0696 408.901 62.4196C404.351 64.9896 400.821 68.3596 398.321 71.7696C395.811 75.1796 394.331 78.6096 393.401 81.4496C393.191 82.1696 392.991 82.8497 392.801 83.4997C392.601 84.1397 392.541 84.7697 392.421 85.3297C392.201 86.4697 392.021 87.4297 392.001 88.2297C391.941 88.9997 391.901 89.5896 391.871 90.0296C391.841 90.4296 391.841 90.6396 391.851 90.6396V90.6897Z"
      fill="#263238" />
  </g>
  <defs>
    <clipPath id="clip0_1794_4028">
      <rect width="601.55" height="443.06" fill="white" />
    </clipPath>
  </defs>
</svg>